<svg width="82" height="28" version="1.1" xmlns="http://www.w3.org/2000/svg"><g id="Page-1" stroke="none" stroke-width="1" fill="none" fill-rule="evenodd"><g id="Artboard-1" transform="translate(-12 -18)"><g id="fulllogo" transform="translate(12 18)"><g id="brick"><path d="M10.37 24.714c4.12 0 6.77-3.1 6.77-7.098 0-3.998-2.65-7.097-6.77-7.097-4.12 0-6.772 3.1-6.772 7.097 0 3.997 2.652 7.098 6.771 7.098zM0 .744h3.181v10.1c1.754-2.042 4.16-3.265 6.934-3.265 5.997 0 10.035 4.242 10.035 10.034 0 5.711-4.202 10.035-9.546 10.035-3.425 0-6.24-1.713-7.423-3.875v3.385H.001V.744z" id="Fill-34" fill="#1E1E1E"/><path id="Fill-35" fill="#1E1E1E" d="M37.783 27.158h3.182V8.069h-3.182z"/><path id="Fill-36" fill="#308EC7" d="M37.848 3.934h3.19V.744h-3.19z"/><path d="M33.324 8.419c-2.819-.07-5.743 1.603-6.604 3.28V8.072h-2.988v19.09h3.182v-7.003c0-.774-.184-4.861 1.953-6.835 1.312-1.213 3.231-1.937 5.521-1.937V8.503a7.53 7.53 0 0 0-1.064-.084" id="Fill-37" fill="#1E1E1E"/><path d="M56.152 24.53c-.49.12-1 .17-1.525.17-3.981 0-7.202-3.105-7.202-7.086a7.208 7.208 0 0 1 7.208-7.208c.524 0 1.03.062 1.523.168 1.349.244 2.576 1.084 3.599 1.957l1.889-1.932c-1.917-2.082-4.528-3.02-7.342-3.02-5.874 0-9.872 4.243-9.872 10.034 0 5.875 3.957 10.036 9.872 10.036 2.774 0 5.384-.94 7.22-3.06l-2.07-2.036c-.98.897-1.95 1.648-3.3 1.978" id="Fill-38" fill="#1E1E1E"/><path id="Fill-39" fill="#1E1E1E" d="M81.358 27.159L70.511 16.758l9.22-8.688h-4.418l-7.097 6.862V.745h-3.18v26.414h3.18v-8.576l8.87 8.576z"/></g></g></g></g></svg>