<?xml version="1.0" encoding="UTF-8"?>
<svg width="82px" height="28px" viewBox="0 0 82 28" version="1.1" xmlns="http://www.w3.org/2000/svg" xmlns:xlink="http://www.w3.org/1999/xlink">
    <!-- Generator: Sketch 50.2 (55047) - http://www.bohemiancoding.com/sketch -->
    <title>brick</title>
    <desc>Created with Sketch.</desc>
    <defs></defs>
    <g id="Page-1" stroke="none" stroke-width="1" fill="none" fill-rule="evenodd">
        <g id="Artboard-1" transform="translate(-12.000000, -18.000000)">
            <g id="fulllogo" transform="translate(12.000000, 18.000000)">
                <g id="brick">
                    <path d="M10.3693,24.7144 C14.4893,24.7144 17.1403,21.6134 17.1403,17.6164 C17.1403,13.6184 14.4893,10.5194 10.3693,10.5194 C6.2503,10.5194 3.5983,13.6184 3.5983,17.6164 C3.5983,21.6134 6.2503,24.7144 10.3693,24.7144 Z M0.0003,0.7444 L3.1813,0.7444 L3.1813,10.8434 C4.9353,8.8024 7.3413,7.5794 10.1153,7.5794 C16.1123,7.5794 20.1503,11.8214 20.1503,17.6134 C20.1503,23.3244 15.9483,27.6484 10.6043,27.6484 C7.1793,27.6484 4.3643,25.9354 3.1813,23.7734 L3.1813,27.1584 L0.0003,27.1584 L0.0003,0.7444 Z" id="Fill-34" fill="#1E1E1E"></path>
                    <polygon id="Fill-35" fill="#1E1E1E" points="37.783 27.158 40.965 27.158 40.965 8.069 37.783 8.069"></polygon>
                    <polygon id="Fill-36" fill="#308EC7" points="37.848 3.934 41.038 3.934 41.038 0.744 37.848 0.744"></polygon>
                    <path d="M33.3244,8.419 C30.5054,8.349 27.5814,10.022 26.7204,11.699 L26.7204,8.072 L23.7324,8.072 L23.7324,27.162 L23.8734,27.162 L25.4124,27.162 L26.9144,27.162 L26.9144,20.159 C26.9144,19.385 26.7304,15.298 28.8674,13.324 C30.1794,12.111 32.0984,11.387 34.3884,11.387 L34.3884,8.503 C33.8344,8.433 33.7684,8.43 33.3244,8.419" id="Fill-37" fill="#1E1E1E"></path>
                    <path d="M56.1516,24.5307 C55.6626,24.6507 55.1516,24.6997 54.6266,24.6997 C50.6456,24.6997 47.4246,21.5947 47.4246,17.6137 C47.4246,13.6327 50.6516,10.4057 54.6326,10.4057 C55.1566,10.4057 55.6636,10.4677 56.1556,10.5737 C57.5046,10.8177 58.7316,11.6577 59.7546,12.5307 L61.6436,10.5987 C59.7266,8.5167 57.1156,7.5797 54.3016,7.5797 C48.4276,7.5797 44.4296,11.8217 44.4296,17.6127 C44.4296,23.4877 48.3866,27.6487 54.3016,27.6487 C57.0756,27.6487 59.6856,26.7097 61.5216,24.5887 L59.4526,22.5527 C58.4726,23.4497 57.5016,24.2007 56.1516,24.5307" id="Fill-38" fill="#1E1E1E"></path>
                    <polygon id="Fill-39" fill="#1E1E1E" points="81.3581 27.1586 70.5111 16.7576 79.7301 8.0696 75.3131 8.0696 68.2161 14.9316 68.2161 0.7446 65.0351 0.7446 65.0351 27.1586 68.2161 27.1586 68.2161 18.5826 77.0851 27.1586"></polygon>
                </g>
            </g>
        </g>
    </g>
</svg>