<?xml version="1.0" encoding="UTF-8"?>
<svg width="407px" height="28px" viewBox="0 0 407 28" version="1.1" xmlns="http://www.w3.org/2000/svg" xmlns:xlink="http://www.w3.org/1999/xlink">
    <!-- Generator: Sketch 50.2 (55047) - http://www.bohemiancoding.com/sketch -->
    <title>fulllogo</title>
    <desc>Created with Sketch.</desc>
    <defs></defs>
    <g id="Page-1" stroke="none" stroke-width="1" fill="none" fill-rule="evenodd">
        <g id="Artboard-1" transform="translate(-12.000000, -18.000000)">
            <g id="fulllogo" transform="translate(12.000000, 18.000000)">
                <g id="communicating" transform="translate(105.000000, 9.000000)" fill="#1E1E1E">
                    <path d="M9.1667,12.4722 C8.8907,12.9802 8.5427,13.4132 8.1277,13.7692 C7.7117,14.1252 7.2367,14.3992 6.7027,14.5902 C6.1677,14.7822 5.5897,14.8772 4.9707,14.8772 C4.2977,14.8772 3.6567,14.7522 3.0497,14.5012 C2.4427,14.2512 1.9077,13.8942 1.4467,13.4322 C1.1297,13.1152 0.8817,12.7862 0.7037,12.4422 C0.5257,12.0992 0.3937,11.7102 0.3087,11.2752 C0.2217,10.8392 0.1717,10.3342 0.1597,9.7602 C0.1457,9.1862 0.1397,8.5032 0.1397,7.7112 C0.1397,6.9192 0.1457,6.2362 0.1597,5.6622 C0.1717,5.0882 0.2217,4.5832 0.3087,4.1472 C0.3937,3.7122 0.5257,3.3232 0.7037,2.9802 C0.8817,2.6362 1.1297,2.3062 1.4467,1.9892 C1.9077,1.5282 2.4427,1.1712 3.0497,0.9212 C3.6567,0.6702 4.2977,0.5442 4.9707,0.5442 C6.2497,0.5442 7.3097,0.9112 8.1477,1.6432 C8.9857,2.3752 9.5227,3.3822 9.7607,4.6622 L8.6717,4.6622 C8.4607,3.6732 8.0287,2.8972 7.3757,2.3362 C6.7227,1.7752 5.9197,1.4952 4.9707,1.4952 C4.4687,1.4952 3.9867,1.5872 3.5247,1.7722 C3.0627,1.9572 2.6537,2.2272 2.2977,2.5832 C2.0467,2.8352 1.8487,3.1022 1.7037,3.3862 C1.5587,3.6692 1.4497,4.0062 1.3767,4.3952 C1.3047,4.7842 1.2587,5.2462 1.2387,5.7802 C1.2187,6.3152 1.2087,6.9592 1.2087,7.7112 C1.2087,8.4632 1.2187,9.1062 1.2387,9.6412 C1.2587,10.1762 1.3047,10.6382 1.3767,11.0272 C1.4497,11.4172 1.5587,11.7532 1.7037,12.0362 C1.8487,12.3202 2.0467,12.5882 2.2977,12.8382 C2.6537,13.1952 3.0627,13.4652 3.5247,13.6502 C3.9867,13.8352 4.4687,13.9272 4.9707,13.9272 C5.9197,13.9272 6.7287,13.6472 7.3957,13.0862 C8.0617,12.5252 8.5007,11.7492 8.7117,10.7602 L9.7607,10.7602 C9.6427,11.3932 9.4437,11.9642 9.1667,12.4722" id="Fill-2"></path>
                    <path d="M21.4807,7.7108 C21.4807,6.9588 21.4707,6.3148 21.4517,5.7808 C21.4317,5.2468 21.3847,4.7838 21.3127,4.3948 C21.2397,4.0058 21.1307,3.6698 20.9857,3.3858 C20.8407,3.1018 20.6427,2.8348 20.3927,2.5838 C20.0357,2.2278 19.6267,1.9568 19.1647,1.7718 C18.7027,1.5868 18.2207,1.4948 17.7197,1.4948 C17.2177,1.4948 16.7357,1.5868 16.2737,1.7718 C15.8127,1.9568 15.4027,2.2278 15.0467,2.5838 C14.7957,2.8348 14.5987,3.1018 14.4527,3.3858 C14.3077,3.6698 14.1987,4.0058 14.1267,4.3948 C14.0537,4.7838 14.0077,5.2468 13.9877,5.7808 C13.9677,6.3148 13.9577,6.9588 13.9577,7.7108 C13.9577,8.4638 13.9677,9.1068 13.9877,9.6408 C14.0077,10.1758 14.0537,10.6378 14.1267,11.0268 C14.1987,11.4168 14.3077,11.7528 14.4527,12.0368 C14.5987,12.3208 14.7957,12.5878 15.0467,12.8378 C15.4027,13.1948 15.8127,13.4658 16.2737,13.6498 C16.7357,13.8348 17.2177,13.9268 17.7197,13.9268 C18.2207,13.9268 18.7027,13.8348 19.1647,13.6498 C19.6267,13.4658 20.0357,13.1948 20.3927,12.8378 C20.6427,12.5878 20.8407,12.3208 20.9857,12.0368 C21.1307,11.7528 21.2397,11.4168 21.3127,11.0268 C21.3847,10.6378 21.4317,10.1758 21.4517,9.6408 C21.4707,9.1068 21.4807,8.4638 21.4807,7.7108 M22.5497,7.7108 C22.5497,8.5028 22.5427,9.1858 22.5297,9.7598 C22.5167,10.3338 22.4677,10.8388 22.3817,11.2748 C22.2957,11.7098 22.1647,12.0998 21.9857,12.4428 C21.8077,12.7858 21.5597,13.1158 21.2437,13.4318 C20.7807,13.8948 20.2467,14.2508 19.6397,14.5018 C19.0327,14.7518 18.3927,14.8778 17.7197,14.8778 C17.0457,14.8778 16.4057,14.7518 15.7997,14.5018 C15.1917,14.2508 14.6577,13.8948 14.1947,13.4318 C13.8787,13.1158 13.6317,12.7858 13.4537,12.4428 C13.2747,12.0998 13.1427,11.7098 13.0567,11.2748 C12.9717,10.8388 12.9217,10.3338 12.9087,9.7598 C12.8957,9.1858 12.8887,8.5028 12.8887,7.7108 C12.8887,6.9198 12.8957,6.2358 12.9087,5.6618 C12.9217,5.0878 12.9717,4.5828 13.0567,4.1478 C13.1427,3.7118 13.2747,3.3228 13.4537,2.9798 C13.6317,2.6368 13.8787,2.3068 14.1947,1.9898 C14.6577,1.5278 15.1917,1.1718 15.7997,0.9208 C16.4057,0.6698 17.0457,0.5448 17.7197,0.5448 C18.3927,0.5448 19.0327,0.6698 19.6397,0.9208 C20.2467,1.1718 20.7807,1.5278 21.2437,1.9898 C21.5597,2.3068 21.8077,2.6368 21.9857,2.9798 C22.1647,3.3228 22.2957,3.7118 22.3817,4.1478 C22.4677,4.5828 22.5167,5.0878 22.5297,5.6618 C22.5427,6.2358 22.5497,6.9198 22.5497,7.7108" id="Fill-4"></path>
                    <polygon id="Fill-6" points="37.1203 3.138 32.8443 12.779 31.7753 12.779 27.4193 3.138 27.4193 14.759 26.3503 14.759 26.3503 0.663 27.4193 0.663 32.3293 11.532 37.1203 0.663 38.1893 0.663 38.1893 14.759 37.1203 14.759"></polygon>
                    <polygon id="Fill-8" points="53.3142 3.138 49.0382 12.779 47.9682 12.779 43.6132 3.138 43.6132 14.759 42.5442 14.759 42.5442 0.663 43.6132 0.663 48.5232 11.532 53.3142 0.663 54.3832 0.663 54.3832 14.759 53.3142 14.759"></polygon>
                    <path d="M67.8449,12.0765 C67.6069,12.6505 67.2739,13.1455 66.8449,13.5605 C66.4159,13.9765 65.9079,14.3005 65.3209,14.5315 C64.7339,14.7615 64.0829,14.8775 63.3699,14.8775 C62.6579,14.8775 62.0079,14.7615 61.4209,14.5315 C60.8339,14.3005 60.3249,13.9765 59.8969,13.5605 C59.4679,13.1455 59.1339,12.6505 58.8969,12.0765 C58.6589,11.5015 58.5399,10.8715 58.5399,10.1855 L58.5399,0.6635 L59.6099,0.6635 L59.6099,10.0475 C59.6099,10.6285 59.6989,11.1595 59.8769,11.6405 C60.0549,12.1225 60.3089,12.5315 60.6379,12.8675 C60.9689,13.2045 61.3649,13.4655 61.8269,13.6505 C62.2879,13.8355 62.8029,13.9275 63.3699,13.9275 C63.9379,13.9275 64.4519,13.8355 64.9149,13.6505 C65.3769,13.4655 65.7729,13.2045 66.1019,12.8675 C66.4319,12.5315 66.6869,12.1225 66.8649,11.6405 C67.0429,11.1595 67.1319,10.6285 67.1319,10.0475 L67.1319,0.6635 L68.2009,0.6635 L68.2009,10.1855 C68.2009,10.8715 68.0819,11.5015 67.8449,12.0765" id="Fill-10"></path>
                    <polygon id="Fill-12" points="73.427 2.5042 73.427 14.7592 72.359 14.7592 72.359 0.6632 73.427 0.6632 81.564 12.8782 81.564 0.6632 82.633 0.6632 82.633 14.7592 81.564 14.7592"></polygon>
                    <polygon id="Fill-14" points="86.988 14.759 88.057 14.759 88.057 0.663 86.988 0.663"></polygon>
                    <path d="M100.8855,12.4722 C100.6085,12.9802 100.2615,13.4132 99.8465,13.7692 C99.4295,14.1252 98.9555,14.3992 98.4205,14.5902 C97.8865,14.7822 97.3085,14.8772 96.6885,14.8772 C96.0155,14.8772 95.3745,14.7522 94.7685,14.5012 C94.1615,14.2512 93.6265,13.8942 93.1645,13.4322 C92.8475,13.1152 92.6005,12.7862 92.4225,12.4422 C92.2445,12.0992 92.1125,11.7102 92.0265,11.2752 C91.9405,10.8392 91.8905,10.3342 91.8775,9.7602 C91.8645,9.1862 91.8585,8.5032 91.8585,7.7112 C91.8585,6.9192 91.8645,6.2362 91.8775,5.6622 C91.8905,5.0882 91.9405,4.5832 92.0265,4.1472 C92.1125,3.7122 92.2445,3.3232 92.4225,2.9802 C92.6005,2.6362 92.8475,2.3062 93.1645,1.9892 C93.6265,1.5282 94.1615,1.1712 94.7685,0.9212 C95.3745,0.6702 96.0155,0.5442 96.6885,0.5442 C97.9685,0.5442 99.0275,0.9112 99.8655,1.6432 C100.7035,2.3752 101.2415,3.3822 101.4795,4.6622 L100.3905,4.6622 C100.1785,3.6732 99.7475,2.8972 99.0935,2.3362 C98.4405,1.7752 97.6385,1.4952 96.6885,1.4952 C96.1865,1.4952 95.7045,1.5872 95.2435,1.7722 C94.7815,1.9572 94.3715,2.2272 94.0155,2.5832 C93.7645,2.8352 93.5675,3.1022 93.4215,3.3862 C93.2765,3.6692 93.1685,4.0062 93.0955,4.3952 C93.0225,4.7842 92.9765,5.2462 92.9565,5.7802 C92.9375,6.3152 92.9275,6.9592 92.9275,7.7112 C92.9275,8.4632 92.9375,9.1062 92.9565,9.6412 C92.9765,10.1762 93.0225,10.6382 93.0955,11.0272 C93.1685,11.4172 93.2765,11.7532 93.4215,12.0362 C93.5675,12.3202 93.7645,12.5882 94.0155,12.8382 C94.3715,13.1952 94.7815,13.4652 95.2435,13.6502 C95.7045,13.8352 96.1865,13.9272 96.6885,13.9272 C97.6385,13.9272 98.4475,13.6472 99.1135,13.0862 C99.7805,12.5252 100.2185,11.7492 100.4295,10.7602 L101.4795,10.7602 C101.3605,11.3932 101.1625,11.9642 100.8855,12.4722" id="Fill-16"></path>
                    <path d="M105.7946,10.3836 L111.6946,10.3836 L108.7446,2.0886 L105.7946,10.3836 Z M112.0306,11.3336 L105.4586,11.3336 L104.2316,14.7586 L103.0826,14.7586 L108.2696,0.6636 L109.2196,0.6636 L114.4066,14.7586 L113.2586,14.7586 L112.0306,11.3336 Z" id="Fill-17"></path>
                    <polygon id="Fill-18" points="119.3757 14.7589 118.3067 14.7589 118.3067 1.6139 114.1097 1.6139 114.1097 0.6629 123.5927 0.6629 123.5927 1.6139 119.3757 1.6139"></polygon>
                    <polygon id="Fill-19" points="126.364 14.759 127.432 14.759 127.432 0.663 126.364 0.663"></polygon>
                    <polygon id="Fill-20" points="132.8566 2.5042 132.8566 14.7592 131.7876 14.7592 131.7876 0.6632 132.8566 0.6632 140.9936 12.8782 140.9936 0.6632 142.0626 0.6632 142.0626 14.7592 140.9936 14.7592"></polygon>
                    <path d="M155.2863,11.7792 C155.1153,12.3142 154.8183,12.8052 154.3963,13.2542 C153.9333,13.7692 153.3793,14.1682 152.7323,14.4522 C152.0863,14.7362 151.4063,14.8772 150.6933,14.8772 C150.0203,14.8772 149.3803,14.7522 148.7733,14.5012 C148.1663,14.2512 147.6323,13.8942 147.1693,13.4322 C146.8533,13.1152 146.6063,12.7862 146.4283,12.4422 C146.2493,12.0992 146.1173,11.7102 146.0313,11.2752 C145.9453,10.8392 145.8963,10.3342 145.8833,9.7602 C145.8693,9.1862 145.8633,8.5032 145.8633,7.7112 C145.8633,6.9192 145.8693,6.2362 145.8833,5.6622 C145.8963,5.0882 145.9453,4.5832 146.0313,4.1472 C146.1173,3.7122 146.2493,3.3232 146.4283,2.9802 C146.6063,2.6362 146.8533,2.3062 147.1693,1.9892 C147.6323,1.5282 148.1663,1.1712 148.7733,0.9212 C149.3803,0.6702 150.0203,0.5442 150.6933,0.5442 C151.3013,0.5442 151.8743,0.6432 152.4163,0.8412 C152.9563,1.0402 153.4393,1.3162 153.8613,1.6732 C154.2833,2.0292 154.6363,2.4622 154.9203,2.9692 C155.2043,3.4782 155.3983,4.0422 155.5043,4.6622 L154.4353,4.6622 C154.2243,3.6722 153.7853,2.8972 153.1193,2.3362 C152.4523,1.7752 151.6443,1.4952 150.6933,1.4952 C150.1923,1.4952 149.7103,1.5872 149.2483,1.7722 C148.7863,1.9572 148.3773,2.2272 148.0203,2.5832 C147.7703,2.8352 147.5723,3.1022 147.4273,3.3862 C147.2823,3.6692 147.1733,4.0062 147.1003,4.3952 C147.0273,4.7842 146.9813,5.2462 146.9613,5.7802 C146.9423,6.3152 146.9323,6.9592 146.9323,7.7112 C146.9323,8.4632 146.9423,9.1062 146.9613,9.6412 C146.9813,10.1762 147.0273,10.6382 147.1003,11.0272 C147.1733,11.4172 147.2823,11.7532 147.4273,12.0362 C147.5723,12.3202 147.7703,12.5882 148.0203,12.8382 C148.3773,13.1952 148.7863,13.4652 149.2483,13.6502 C149.7103,13.8352 150.1923,13.9272 150.6933,13.9272 C151.2483,13.9272 151.7823,13.8122 152.2973,13.5812 C152.8113,13.3502 153.2543,13.0102 153.6233,12.5612 C153.9273,12.1782 154.1453,11.7692 154.2773,11.3342 C154.4093,10.8982 154.4753,10.3772 154.4753,9.7702 L154.4753,8.5032 L150.6933,8.5032 L150.6933,7.5522 L155.5433,7.5522 L155.5433,9.8492 C155.5433,10.6012 155.4583,11.2442 155.2863,11.7792" id="Fill-21"></path>
                    <path d="M165.1843,10.3836 L171.0833,10.3836 L168.1343,2.0886 L165.1843,10.3836 Z M171.4203,11.3336 L164.8483,11.3336 L163.6213,14.7586 L162.4723,14.7586 L167.6593,0.6636 L168.6093,0.6636 L173.7963,14.7586 L172.6483,14.7586 L171.4203,11.3336 Z" id="Fill-22"></path>
                    <path d="M184.6057,4.4641 C184.6057,3.4881 184.3147,2.7691 183.7337,2.3071 C183.1527,1.8441 182.4077,1.6141 181.4977,1.6141 L177.3397,1.6141 L177.3397,7.3151 L181.4977,7.3151 C182.4077,7.3151 183.1527,7.0841 183.7337,6.6221 C184.3147,6.1601 184.6057,5.4411 184.6057,4.4641 Z M181.2197,8.2651 L177.3397,8.2651 L177.3397,14.7591 L176.2707,14.7591 L176.2707,0.6631 L181.6357,0.6631 C182.2027,0.6631 182.7347,0.7461 183.2297,0.9111 C183.7237,1.0761 184.1527,1.3161 184.5167,1.6331 C184.8787,1.9501 185.1627,2.3461 185.3677,2.8211 C185.5717,3.2961 185.6737,3.8371 185.6737,4.4451 C185.6737,5.5131 185.3807,6.3711 184.7927,7.0181 C184.2067,7.6651 183.4177,8.0741 182.4277,8.2451 L185.8327,14.7591 L184.5857,14.7591 L181.2197,8.2651 Z" id="Fill-23"></path>
                    <path d="M197.7502,12.4722 C197.4732,12.9802 197.1262,13.4132 196.7112,13.7692 C196.2952,14.1252 195.8202,14.3992 195.2862,14.5902 C194.7512,14.7822 194.1732,14.8772 193.5532,14.8772 C192.8802,14.8772 192.2402,14.7522 191.6332,14.5012 C191.0262,14.2512 190.4912,13.8942 190.0292,13.4322 C189.7132,13.1152 189.4652,12.7862 189.2872,12.4422 C189.1092,12.0992 188.9772,11.7102 188.8912,11.2752 C188.8052,10.8392 188.7552,10.3342 188.7432,9.7602 C188.7292,9.1862 188.7232,8.5032 188.7232,7.7112 C188.7232,6.9192 188.7292,6.2362 188.7432,5.6622 C188.7552,5.0882 188.8052,4.5832 188.8912,4.1472 C188.9772,3.7122 189.1092,3.3232 189.2872,2.9802 C189.4652,2.6362 189.7132,2.3062 190.0292,1.9892 C190.4912,1.5282 191.0262,1.1712 191.6332,0.9212 C192.2402,0.6702 192.8802,0.5442 193.5532,0.5442 C194.8332,0.5442 195.8922,0.9112 196.7302,1.6432 C197.5692,2.3752 198.1062,3.3822 198.3442,4.6622 L197.2552,4.6622 C197.0442,3.6732 196.6122,2.8972 195.9582,2.3362 C195.3062,1.7752 194.5032,1.4952 193.5532,1.4952 C193.0512,1.4952 192.5702,1.5872 192.1082,1.7722 C191.6462,1.9572 191.2372,2.2272 190.8812,2.5832 C190.6302,2.8352 190.4322,3.1022 190.2872,3.3862 C190.1412,3.6692 190.0322,4.0062 189.9602,4.3952 C189.8872,4.7842 189.8412,5.2462 189.8222,5.7802 C189.8022,6.3152 189.7922,6.9592 189.7922,7.7112 C189.7922,8.4632 189.8022,9.1062 189.8222,9.6412 C189.8412,10.1762 189.8872,10.6382 189.9602,11.0272 C190.0322,11.4172 190.1412,11.7532 190.2872,12.0362 C190.4322,12.3202 190.6302,12.5882 190.8812,12.8382 C191.2372,13.1952 191.6462,13.4652 192.1082,13.6502 C192.5702,13.8352 193.0512,13.9272 193.5532,13.9272 C194.5032,13.9272 195.3122,13.6472 195.9792,13.0862 C196.6452,12.5252 197.0832,11.7492 197.2952,10.7602 L198.3442,10.7602 C198.2262,11.3932 198.0272,11.9642 197.7502,12.4722" id="Fill-24"></path>
                    <polygon id="Fill-25" points="210.4402 8.1265 203.0962 8.1265 203.0962 14.7585 202.0262 14.7585 202.0262 0.6635 203.0962 0.6635 203.0962 7.1765 210.4402 7.1765 210.4402 0.6635 211.5092 0.6635 211.5092 14.7585 210.4402 14.7585"></polygon>
                    <polygon id="Fill-26" points="215.864 14.759 216.933 14.759 216.933 0.663 215.864 0.663"></polygon>
                    <polygon id="Fill-27" points="224.9709 14.7589 223.9019 14.7589 223.9019 1.6139 219.7039 1.6139 219.7039 0.6629 229.1869 0.6629 229.1869 1.6139 224.9709 1.6139"></polygon>
                    <polygon id="Fill-28" points="231.9587 0.6634 240.5107 0.6634 240.5107 1.6134 233.0277 1.6134 233.0277 7.1764 239.4027 7.1764 239.4027 8.1264 233.0277 8.1264 233.0277 13.8084 240.5107 13.8084 240.5107 14.7594 231.9587 14.7594"></polygon>
                    <path d="M252.2702,12.4722 C251.9932,12.9802 251.6462,13.4132 251.2312,13.7692 C250.8142,14.1252 250.3402,14.3992 249.8052,14.5902 C249.2712,14.7822 248.6932,14.8772 248.0732,14.8772 C247.4002,14.8772 246.7602,14.7522 246.1532,14.5012 C245.5462,14.2512 245.0112,13.8942 244.5492,13.4322 C244.2322,13.1152 243.9852,12.7862 243.8072,12.4422 C243.6292,12.0992 243.4972,11.7102 243.4112,11.2752 C243.3252,10.8392 243.2752,10.3342 243.2622,9.7602 C243.2492,9.1862 243.2432,8.5032 243.2432,7.7112 C243.2432,6.9192 243.2492,6.2362 243.2622,5.6622 C243.2752,5.0882 243.3252,4.5832 243.4112,4.1472 C243.4972,3.7122 243.6292,3.3232 243.8072,2.9802 C243.9852,2.6362 244.2322,2.3062 244.5492,1.9892 C245.0112,1.5282 245.5462,1.1712 246.1532,0.9212 C246.7602,0.6702 247.4002,0.5442 248.0732,0.5442 C249.3532,0.5442 250.4122,0.9112 251.2502,1.6432 C252.0882,2.3752 252.6262,3.3822 252.8642,4.6622 L251.7752,4.6622 C251.5642,3.6732 251.1322,2.8972 250.4782,2.3362 C249.8252,1.7752 249.0232,1.4952 248.0732,1.4952 C247.5712,1.4952 247.0892,1.5872 246.6282,1.7722 C246.1662,1.9572 245.7572,2.2272 245.4002,2.5832 C245.1492,2.8352 244.9522,3.1022 244.8062,3.3862 C244.6612,3.6692 244.5532,4.0062 244.4802,4.3952 C244.4072,4.7842 244.3612,5.2462 244.3412,5.7802 C244.3222,6.3152 244.3122,6.9592 244.3122,7.7112 C244.3122,8.4632 244.3222,9.1062 244.3412,9.6412 C244.3612,10.1762 244.4072,10.6382 244.4802,11.0272 C244.5532,11.4172 244.6612,11.7532 244.8062,12.0362 C244.9522,12.3202 245.1492,12.5882 245.4002,12.8382 C245.7572,13.1952 246.1662,13.4652 246.6282,13.6502 C247.0892,13.8352 247.5712,13.9272 248.0732,13.9272 C249.0232,13.9272 249.8322,13.6472 250.4982,13.0862 C251.1652,12.5252 251.6032,11.7492 251.8142,10.7602 L252.8642,10.7602 C252.7452,11.3932 252.5472,11.9642 252.2702,12.4722" id="Fill-29"></path>
                    <polygon id="Fill-30" points="259.8332 14.7589 258.7642 14.7589 258.7642 1.6139 254.5662 1.6139 254.5662 0.6629 264.0492 0.6629 264.0492 1.6139 259.8332 1.6139"></polygon>
                    <path d="M275.9279,12.0765 C275.6899,12.6505 275.3559,13.1455 274.9279,13.5605 C274.4989,13.9765 273.9899,14.3005 273.4039,14.5315 C272.8159,14.7615 272.1659,14.8775 271.4529,14.8775 C270.7409,14.8775 270.0909,14.7615 269.5029,14.5315 C268.9159,14.3005 268.4079,13.9765 267.9789,13.5605 C267.5499,13.1455 267.2169,12.6505 266.9789,12.0765 C266.7409,11.5015 266.6229,10.8715 266.6229,10.1855 L266.6229,0.6635 L267.6919,0.6635 L267.6919,10.0475 C267.6919,10.6285 267.7809,11.1595 267.9589,11.6405 C268.1369,12.1225 268.3909,12.5315 268.7209,12.8675 C269.0509,13.2045 269.4469,13.4655 269.9089,13.6505 C270.3709,13.8355 270.8859,13.9275 271.4529,13.9275 C272.0209,13.9275 272.5349,13.8355 272.9979,13.6505 C273.4589,13.4655 273.8559,13.2045 274.1849,12.8675 C274.5149,12.5315 274.7699,12.1225 274.9469,11.6405 C275.1249,11.1595 275.2149,10.6285 275.2149,10.0475 L275.2149,0.6635 L276.2829,0.6635 L276.2829,10.1855 C276.2829,10.8715 276.1649,11.5015 275.9279,12.0765" id="Fill-31"></path>
                    <path d="M288.7756,4.4641 C288.7756,3.4881 288.4846,2.7691 287.9046,2.3071 C287.3236,1.8441 286.5776,1.6141 285.6676,1.6141 L281.5096,1.6141 L281.5096,7.3151 L285.6676,7.3151 C286.5776,7.3151 287.3236,7.0841 287.9046,6.6221 C288.4846,6.1601 288.7756,5.4411 288.7756,4.4641 Z M285.3896,8.2651 L281.5096,8.2651 L281.5096,14.7591 L280.4406,14.7591 L280.4406,0.6631 L285.8056,0.6631 C286.3726,0.6631 286.9046,0.7461 287.3996,0.9111 C287.8946,1.0761 288.3226,1.3161 288.6866,1.6331 C289.0496,1.9501 289.3326,2.3461 289.5376,2.8211 C289.7426,3.2961 289.8446,3.8371 289.8446,4.4451 C289.8446,5.5131 289.5506,6.3711 288.9636,7.0181 C288.3766,7.6651 287.5876,8.0741 286.5976,8.2451 L290.0026,14.7591 L288.7556,14.7591 L285.3896,8.2651 Z" id="Fill-32"></path>
                    <polygon id="Fill-33" points="293.4475 0.6634 302.0005 0.6634 302.0005 1.6134 294.5165 1.6134 294.5165 7.1764 300.8905 7.1764 300.8905 8.1264 294.5165 8.1264 294.5165 13.8084 302.0005 13.8084 302.0005 14.7594 293.4475 14.7594"></polygon>
                </g>
                <polygon id="separator" fill="#1E1E1E" points="92.117 28 92.889 28 92.889 0.393 92.117 0.393"></polygon>
                <g id="brick">
                    <path d="M10.3693,24.7144 C14.4893,24.7144 17.1403,21.6134 17.1403,17.6164 C17.1403,13.6184 14.4893,10.5194 10.3693,10.5194 C6.2503,10.5194 3.5983,13.6184 3.5983,17.6164 C3.5983,21.6134 6.2503,24.7144 10.3693,24.7144 Z M0.0003,0.7444 L3.1813,0.7444 L3.1813,10.8434 C4.9353,8.8024 7.3413,7.5794 10.1153,7.5794 C16.1123,7.5794 20.1503,11.8214 20.1503,17.6134 C20.1503,23.3244 15.9483,27.6484 10.6043,27.6484 C7.1793,27.6484 4.3643,25.9354 3.1813,23.7734 L3.1813,27.1584 L0.0003,27.1584 L0.0003,0.7444 Z" id="Fill-34" fill="#1E1E1E"></path>
                    <polygon id="Fill-35" fill="#1E1E1E" points="37.783 27.158 40.965 27.158 40.965 8.069 37.783 8.069"></polygon>
                    <polygon id="Fill-36" fill="#308EC7" points="37.848 3.934 41.038 3.934 41.038 0.744 37.848 0.744"></polygon>
                    <path d="M33.3244,8.419 C30.5054,8.349 27.5814,10.022 26.7204,11.699 L26.7204,8.072 L23.7324,8.072 L23.7324,27.162 L23.8734,27.162 L25.4124,27.162 L26.9144,27.162 L26.9144,20.159 C26.9144,19.385 26.7304,15.298 28.8674,13.324 C30.1794,12.111 32.0984,11.387 34.3884,11.387 L34.3884,8.503 C33.8344,8.433 33.7684,8.43 33.3244,8.419" id="Fill-37" fill="#1E1E1E"></path>
                    <path d="M56.1516,24.5307 C55.6626,24.6507 55.1516,24.6997 54.6266,24.6997 C50.6456,24.6997 47.4246,21.5947 47.4246,17.6137 C47.4246,13.6327 50.6516,10.4057 54.6326,10.4057 C55.1566,10.4057 55.6636,10.4677 56.1556,10.5737 C57.5046,10.8177 58.7316,11.6577 59.7546,12.5307 L61.6436,10.5987 C59.7266,8.5167 57.1156,7.5797 54.3016,7.5797 C48.4276,7.5797 44.4296,11.8217 44.4296,17.6127 C44.4296,23.4877 48.3866,27.6487 54.3016,27.6487 C57.0756,27.6487 59.6856,26.7097 61.5216,24.5887 L59.4526,22.5527 C58.4726,23.4497 57.5016,24.2007 56.1516,24.5307" id="Fill-38" fill="#1E1E1E"></path>
                    <polygon id="Fill-39" fill="#1E1E1E" points="81.3581 27.1586 70.5111 16.7576 79.7301 8.0696 75.3131 8.0696 68.2161 14.9316 68.2161 0.7446 65.0351 0.7446 65.0351 27.1586 68.2161 27.1586 68.2161 18.5826 77.0851 27.1586"></polygon>
                </g>
            </g>
        </g>
    </g>
</svg>