<?xml version="1.0" encoding="UTF-8"?>
<svg viewBox="0 0 20 19" version="1.1" xmlns="http://www.w3.org/2000/svg" xmlns:xlink="http://www.w3.org/1999/xlink">
    <!-- Generator: Sketch 50.2 (55047) - http://www.bohemiancoding.com/sketch -->
    <title>linkedin</title>
    <desc>Created with Sketch.</desc>
    <defs></defs>
    <g id="Page-1" stroke="none" stroke-width="1" fill="none" fill-rule="evenodd">
        <g id="Artboard-1" transform="translate(-133.000000, -77.000000)" fill="#1E1E1E">
            <path d="M133.254461,96 L137.540754,96 L137.540754,83.1804679 L133.254461,83.1804679 L133.254461,96 Z M135.425994,77 C133.959043,77 133,77.956501 133,79.2143653 C133,80.4450162 133.931671,81.4307464 135.369221,81.4307464 L135.397607,81.4307464 C136.892944,81.4307464 137.823601,80.4450162 137.823601,79.2143653 C137.795215,77.956501 136.892944,77 135.425994,77 Z M153,88.6493555 L153,96 L148.712693,96 L148.712693,89.1412127 C148.712693,87.4187046 148.093268,86.2424805 146.54116,86.2424805 C145.357056,86.2424805 144.65146,87.0346931 144.342255,87.8017081 C144.22871,88.075858 144.199311,88.4568458 144.199311,88.8408572 L144.199311,96 L139.912003,96 C139.912003,96 139.968775,84.3839054 139.912003,83.1804679 L144.199311,83.1804679 L144.199311,84.997719 C144.190187,85.0108217 144.199311,84.997719 144.199311,84.997719 C144.769059,84.124874 145.785888,82.8791046 148.063869,82.8791046 C150.884225,82.8791046 153,84.7114742 153,88.6493555 Z" id="linkedin"></path>
        </g>
    </g>
</svg>