<?xml version="1.0" encoding="UTF-8"?>
<svg width="18px" height="15px" viewBox="0 0 18 15" version="1.1" xmlns="http://www.w3.org/2000/svg" xmlns:xlink="http://www.w3.org/1999/xlink">
    <!-- Generator: Sketch 50.2 (55047) - http://www.bohemiancoding.com/sketch -->
    <title>twitter</title>
    <desc>Created with Sketch.</desc>
    <defs></defs>
    <g id="Page-1" stroke="none" stroke-width="1" fill="none" fill-rule="evenodd">
        <g id="Artboard-1" transform="translate(-95.000000, -79.000000)" fill="#1E1E1E">
            <path d="M111.158317,83.1164577 C111.064128,83.8968864 111.064128,84.701577 110.900802,85.4587545 C109.950902,89.9067934 106.783567,93.0426607 102.468938,93.8230894 C101.811623,93.9413668 101.155311,94 100.511022,94 C98.7635271,94 97.0871743,93.5632835 95.4799599,92.6989486 C95.3156313,92.6160534 95.1643287,92.509907 95,92.4148807 C95.1753507,92.4270117 95.3507014,92.4391427 95.5270541,92.4391427 C97.6262525,92.4391427 99.5380762,91.5394258 100.253507,90.8065103 C98.4118236,90.5224424 97.1923848,89.5640922 96.9458918,88.2741609 C97.4268537,88.2509098 97.9078156,88.2155277 98.3997996,88.1922766 C96.4418838,87.2450465 95.4569138,85.9197331 95.6322645,84.4296401 C96.1012024,84.5479175 96.5831663,84.6661949 97.0511022,84.7844723 C95.504008,83.1164577 95.1052104,81.0339668 96.1482966,79.7915487 C98.1302605,82.1702386 100.675351,83.4359078 103.782565,83.6492115 C103.771543,83.5541852 103.759519,83.495552 103.759519,83.4359078 C103.606212,82.0165791 104.017034,80.7974121 105.131263,79.8633239 C105.658317,79.4134654 106.291583,79.2355439 106.947896,79 L107.945892,79 C108.789579,79.2365548 109.551102,79.5671249 110.197395,80.1706429 C110.232465,80.1938941 110.289579,80.2302871 110.348697,80.2302871 C110.383768,80.2302871 110.430862,80.2302871 110.453908,80.2181561 C111.04008,80.0048524 111.627255,79.7925596 112.213427,79.5671249 C112.319639,79.5196118 112.423848,79.4609786 112.588176,79.3780833 C112.260521,80.2535382 111.732465,80.8691872 111.04008,81.3534169 C111.052104,81.3776789 111.064128,81.4130611 111.087174,81.4363122 C111.708417,81.2594015 112.342685,81.08148 113,80.8924383 C112.53006,81.5667206 112.002004,82.1348564 111.392786,82.6433482 C111.275551,82.7494945 111.181363,82.9506672 111.158317,83.1164577 Z" id="twitter"></path>
        </g>
    </g>
</svg>