<?xml version="1.0" encoding="UTF-8"?>
<svg width="18px" height="16px" viewBox="0 0 18 16" version="1.1" xmlns="http://www.w3.org/2000/svg" xmlns:xlink="http://www.w3.org/1999/xlink">
    <!-- Generator: Sketch 50.2 (55047) - http://www.bohemiancoding.com/sketch -->
    <title>wimeo</title>
    <desc>Created with Sketch.</desc>
    <defs></defs>
    <g id="Page-1" stroke="none" stroke-width="1" fill="none" fill-rule="evenodd">
        <g id="Artboard-1" transform="translate(-56.000000, -79.000000)" fill="#1E1E1E">
            <path d="M57.150967,84.1270508 C57.150967,84.1270508 59.1733098,82.5024955 59.6336966,85.7117836 L60.9457002,90.7835411 C60.9457002,90.7835411 62.3238967,96.0135676 65.4310136,94.823997 C65.4310136,94.823997 70.1317011,92.1916252 73.4808669,84.601858 C73.4808669,84.601858 75.4370168,79.0134286 71.7549104,79.0134286 C71.7549104,79.0134286 67.8277912,78.6090767 66.8082222,82.238033 C66.8082222,82.238033 66.4693538,83.3704226 67.615381,83.2948619 C67.615381,83.2948619 69.569555,82.5811195 68.3069492,85.7914287 C68.3069492,85.7914287 66.9257888,89.1181421 65.7748218,89.1181421 C65.7748218,89.1181421 64.3966253,89.1589858 64.0518292,83.0977914 C64.0518292,83.0977914 64.1328414,79.1553602 61.1423032,79.1553602 C61.1423032,79.1553602 59.3353344,79.7292132 56,83.4122873 L57.150967,84.1270508 Z" id="wimeo"></path>
        </g>
    </g>
</svg>